<svg xmlns="http://www.w3.org/2000/svg" style="display:none">
  <symbol id="icon-home" viewBox="0 0 24 24">
    <path d="M3 11.2 12 4l9 7.2V21a1 1 0 0 1-1 1h-5.5v-6h-5v6H4a1 1 0 0 1-1-1z"/>
  </symbol>
  <symbol id="icon-star" viewBox="0 0 24 24">
    <path d="M12 3.3 14.9 9l6.1.5-4.6 3.9 1.4 6L12 16.8 6.2 19.4l1.4-6-4.6-3.9 6.1-.5z"/>
  </symbol>
  <symbol id="icon-bag" viewBox="0 0 24 24">
    <path d="M7 8V7.2C7 4.9 8.8 3 11.1 3h1.8C15.2 3 17 4.9 17 7.2V8h2.2A1.8 1.8 0 0 1 21 9.8v9.4A1.8 1.8 0 0 1 19.2 21H4.8A1.8 1.8 0 0 1 3 19.2V9.8A1.8 1.8 0 0 1 4.8 8H7zm2-.8c0-1 .8-1.9 2.1-1.9h.8c1.3 0 2.1.9 2.1 1.9V8H9z"/>
  </symbol>
  <symbol id="icon-cart" viewBox="0 0 24 24">
    <path d="M4 5H2v2h2l2.4 9.3a2 2 0 0 0 2 1.5h8.4a2 2 0 0 0 1.9-1.4L20 9H7.1zM9 21.5a1.5 1.5 0 1 1 0-3 1.5 1.5 0 0 1 0 3zm7 0a1.5 1.5 0 1 1 0-3 1.5 1.5 0 0 1 0 3z"/>
  </symbol>
  <symbol id="icon-user" viewBox="0 0 24 24">
    <path d="M12 3.5a4.5 4.5 0 1 1 0 9 4.5 4.5 0 0 1 0-9zM4.5 19.6c0-3.1 3.3-5 7.5-5s7.5 1.9 7.5 5V21H4.5z"/>
  </symbol>
  <symbol id="icon-search" viewBox="0 0 24 24">
    <path d="M10.5 4a6.5 6.5 0 0 1 5.2 10.4l4.1 3.9-1.8 1.8-4-4.1A6.5 6.5 0 1 1 10.5 4zm0 2.4a4.1 4.1 0 1 0 .1 8.2 4.1 4.1 0 0 0-.1-8.2z"/>
  </symbol>
  <symbol id="icon-chevron-right" viewBox="0 0 24 24">
    <path d="M9 4 7.6 5.4 13.2 11l-5.6 5.6L9 18l7-7z"/>
  </symbol>
  <symbol id="icon-plus" viewBox="0 0 24 24">
    <path d="M11 5h2v6h6v2h-6v6h-2v-6H5v-2h6z"/>
  </symbol>
  <symbol id="icon-planet" viewBox="0 0 24 24">
    <path d="M12 3a7.5 7.5 0 0 1 7.4 8.8c2.2.7 3.6 1.9 3.6 3.2 0 2.3-4.5 3.9-9.5 3.9S4 17.3 4 15c0-1.3 1.4-2.5 3.6-3.2A7.5 7.5 0 0 1 12 3zm0 2.2a5.3 5.3 0 1 0 0 10.6 5.3 5.3 0 0 0 0-10.6zm-4.8 7C5.5 12.5 4.3 13.6 4.3 15c0 1 2.9 2.5 7.7 2.5 4.8 0 7.7-1.5 7.7-2.5 0-1.4-1.2-2.5-2.9-2.8a7.5 7.5 0 0 1-9.6 0z"/>
  </symbol>
  <symbol id="icon-gear" viewBox="0 0 24 24">
    <path d="M12 8.5a3.5 3.5 0 1 1 0 7 3.5 3.5 0 0 1 0-7zm8.2 1.4-.9-.3a6.3 6.3 0 0 0-.6-1.5l.6-.8-1.4-1.4-.8.6a6.3 6.3 0 0 0-1.5-.6l-.3-.9h-2l-.3.9a6.3 6.3 0 0 0-1.5.6l-.8-.6L6.5 7.3l.6.8c-.3.5-.5 1-.6 1.5l-.9.3V12l.9.3c.1.5.3 1 .6 1.5l-.6.8 1.4 1.4.8-.6c.5.3 1 .5 1.5.6l.3.9h2l.3-.9a6.3 6.3 0 0 0 1.5-.6l.8.6 1.4-1.4-.6-.8c.3-.5.5-1 .6-1.5l.9-.3z"/>
  </symbol>
  <symbol id="icon-wallet" viewBox="0 0 24 24">
    <path d="M4 6.5A2.5 2.5 0 0 1 6.5 4H19a1 1 0 0 1 1 1v2H6.5a.5.5 0 0 0-.5.5V8h13.5a1.5 1.5 0 0 1 1.5 1.5v8A1.5 1.5 0 0 1 19.5 19h-15A1.5 1.5 0 0 1 3 17.5V9a2.5 2.5 0 0 1 1-2zM18 13a1 1 0 1 0 0 2h2v-2z"/>
  </symbol>
  <symbol id="icon-ticket" viewBox="0 0 24 24">
    <path d="M4 6h16a1 1 0 0 1 1 1v3.5a2.5 2.5 0 0 0 0 5V19a1 1 0 0 1-1 1H4a1 1 0 0 1-1-1v-3.5a2.5 2.5 0 0 0 0-5V7a1 1 0 0 1 1-1zm5 2v8h2V8zm4 0v8h2V8z"/>
  </symbol>
  <symbol id="icon-leaf" viewBox="0 0 24 24">
    <path d="M20.5 3.5S11 3 6.7 7.3C4.6 9.5 4 12.4 4 15.1 4 18 6 21 9.8 21c4.8 0 7-4.2 7-7.4 0-2.6-1.6-3.9-1.6-3.9s-1.4 2.2-4.3 3.1c-1.3.4-2.8.4-4 .3 0 0 1.4-.9 2.5-1.8 1.7-1.3 4.6-2.9 11.1-7.8z"/>
  </symbol>
  <symbol id="icon-location" viewBox="0 0 24 24">
    <path d="M12 3.5a6.5 6.5 0 0 1 6.5 6.5c0 4.2-4.4 9-6 10.7a.7.7 0 0 1-1 0c-1.6-1.7-6-6.5-6-10.7A6.5 6.5 0 0 1 12 3.5zm0 3a3.5 3.5 0 1 0 0 7 3.5 3.5 0 0 0 0-7z"/>
  </symbol>
  <symbol id="icon-check" viewBox="0 0 24 24">
    <path d="m4.5 12.5 2-2 4 4 7-7 2 2-9 9z"/>
  </symbol>
</svg>
